<svg xmlns="http://www.w3.org/2000/svg" viewBox="0 0 32 32">
  <circle cx="16" cy="16" r="16" fill="#ffffff" />
  <path
    d="M16.07 16.02 L16.11 16.03 L16.14 16.06 L16.17 16.09 L16.19 16.13 L16.20 16.17 L16.21 16.22 L16.21 16.27 L16.21 16.32 L16.19 16.37 L16.17 16.43 L16.13 16.48 L16.09 16.52 L16.04 16.57 L15.98 16.61 L15.92 16.64 L15.84 16.67 L15.77 16.68 L15.68 16.69 L15.60 16.69 L15.51 16.68 L15.42 16.65 L15.33 16.62 L15.24 16.57 L15.15 16.51 L15.07 16.44 L15.00 16.36 L14.93 16.26 L14.87 16.16 L14.82 16.05 L14.79 15.93 L14.76 15.80 L14.75 15.67 L14.75 15.53 L14.77 15.39 L14.81 15.26 L14.86 15.12 L14.92 14.98 L15.01 14.85 L15.10 14.73 L15.22 14.61 L15.35 14.50 L15.49 14.41 L15.64 14.33 L15.80 14.26 L15.98 14.21 L16.16 14.18 L16.35 14.17 L16.54 14.18 L16.73 14.21 L16.93 14.25 L17.12 14.32 L17.30 14.41 L17.48 14.53 L17.65 14.66 L17.81 14.81 L17.95 14.98 L18.08 15.16 L18.19 15.36 L18.28 15.58 L18.35 15.80 L18.39 16.04 L18.42 16.28 L18.41 16.53 L18.38 16.78 L18.33 17.03 L18.25 17.28 L18.14 17.52 L18.01 17.75 L17.85 17.97 L17.66 18.17 L17.46 18.36 L17.23 18.53 L16.99 18.67 L16.73 18.80 L16.45 18.89 L16.16 18.96 L15.86 19.00 L15.56 19.01 L15.25 18.99 L14.94 18.93 L14.64 18.85 L14.34 18.73 L14.06 18.58 L13.78 18.40 L13.52 18.19 L13.29 17.96 L13.07 17.69 L12.88 17.41 L12.72 17.10 L12.59 16.78 L12.49 16.44 L12.43 16.09 L12.40 15.73 L12.41 15.36 L12.45 15.00 L12.54 14.64 L12.65 14.28 L12.81 13.93 L13.00 13.60 L13.23 13.29 L13.49 13.00 L13.78 12.73 L14.10 12.49 L14.45 12.28 L14.82 12.11 L15.20 11.97 L15.60 11.88 L16.02 11.82 L16.44 11.80 L16.86 11.83 L17.29 11.90 L17.70 12.02 L18.11 12.17 L18.51 12.37 L18.88 12.61 L19.23 12.89 L19.55 13.20 L19.85 13.55 L20.11 13.93 L20.33 14.34 L20.51 14.77 L20.65 15.22 L20.74 15.68 L20.79 16.16 L20.78 16.64 L20.73 17.13 L20.63 17.61 L20.48 18.08 L20.29 18.53 L20.04 18.97 L19.75 19.38 L19.42 19.77 L19.05 20.12 L18.64 20.44 L18.20 20.72 L17.73 20.95 L17.24 21.13 L16.73 21.27 L16.20 21.35 L15.66 21.39 L15.12 21.36 L14.58 21.28 L14.04 21.15 L13.52 20.96 L13.02 20.72 L12.54 20.43 L12.09 20.09 L11.67 19.71 L11.29 19.28 L10.95 18.81 L10.66 18.31 L10.42 17.77 L10.24 17.22 L10.11 16.64 L10.03 16.05 L10.02 15.45 L10.07 14.85 L10.18 14.25 L10.35 13.66 L10.57 13.09 L10.86 12.54 L11.20 12.02 L11.60 11.54 L12.04 11.09 L12.53 10.69 L13.06 10.33 L13.63 10.03 L14.22 9.79 L14.84 9.61 L15.49 9.48 L16.14 9.43 L16.80 9.44 L17.46 9.51 L18.11 9.65 L18.75 9.86 L19.37 10.13 L19.96 10.47 L20.52 10.86 L21.03 11.31 L21.51 11.82 L21.93 12.37 L22.30 12.96 L22.60 13.59 L22.85 14.25 L23.03 14.94 L23.14 15.65 L23.17 16.36 L23.14 17.08 L23.03 17.80 L22.85 18.50 L22.60 19.19 L22.28 19.86 L21.90 20.49 L21.45 21.08 L20.94 21.63 L20.37 22.12 L19.76 22.56 L19.10 22.94 L18.41 23.25 L17.68 23.49 L16.93 23.66 L16.16 23.75 L15.38 23.77 L14.60 23.70 L13.83 23.56 L13.07 23.34 L12.34 23.05 L11.63 22.68 L10.96 22.24 L10.34 21.73 L9.76 21.16 L9.25 20.53 L8.80 19.85 L8.41 19.13 L8.10 18.37 L7.87 17.57 L7.71 16.76 L7.64 15.93 L7.65 15.09 L7.75 14.25 L7.93 13.42 L8.19 12.62 L8.53 11.83 L8.96 11.09"
    fill="none"
    stroke="#111"
    stroke-width="1.15"
    stroke-linecap="round"
    stroke-linejoin="round"
  />
</svg>
